<svg xmlns="http://www.w3.org/2000/svg" viewBox="0 0 175.51 71.25"><g id="Layer_2" data-name="Layer 2"><g id="Layer_2-2" data-name="Layer 2"><text transform="translate(35.15 51.94)" style="font-size:60px;font-family:Turquoise-Regular, Turquoise">M<tspan x="51" y="0" style="letter-spacing:-0.14000651041666667em">/</tspan><tspan x="66.05" y="0" style="letter-spacing:-0.05799153645833333em">A</tspan></text><path d="M170.13,36.09c-2.74,1.31-13.28,5.17-18.1,7-2.63,1-5.27,2.73-5.27,5.14,0,1.09-.18,1-.24,1s-.08-.11-.08-.32c.06-2.19.18-3.49.15-5.58,0-1.76,2.7-2.3,6-3.44,5.84-2,9.93-3.1,11.76-3.78-2.4-.8-6.83-2.12-11.76-3.81-3.34-1.13-6.06-1.68-6-3.44,0-2.09-.15-5-.15-7.17,0-.21,0-.32.08-.31s.24-.07.24,1c0,2.41,2.64,4.11,5.27,5.13,4.82,1.87,15.36,5.73,18.1,7C170.24,34.67,170.31,36,170.13,36.09Z"/><path d="M6.55,34.62c2.74-1.31,13.28-5.17,18.1-7,2.63-1,5.28-2.72,5.28-5.13,0-1.09.17-1,.23-1s.09.1.08.31c0,2.2-.18,3.5-.15,5.59,0,1.75-2.7,2.3-6,3.44-5.85,2-9.93,3.09-11.77,3.78,2.41.8,6.84,2.12,11.77,3.8,3.33,1.14,6.06,1.69,6,3.44,0,2.1.15,5,.15,7.17,0,.21,0,.33-.08.32s-.23.07-.23-1c0-2.41-2.65-4.11-5.28-5.13-4.82-1.87-15.36-5.73-18.1-7C6.44,36,6.37,34.71,6.55,34.62Z"/><rect x="0.26" y="0.26" width="175" height="68.5" style="fill:none;stroke:#000;stroke-miterlimit:10;stroke-width:0.5132850460139459px"/></g></g></svg>