<?xml version="1.0" encoding="utf-8"?>
<!-- Generator: Adobe Illustrator 24.1.0, SVG Export Plug-In . SVG Version: 6.00 Build 0)  -->
<svg version="1.1" id="Layer_1" xmlns="http://www.w3.org/2000/svg" xmlns:xlink="http://www.w3.org/1999/xlink" x="0px" y="0px"
	 viewBox="0 0 113.3 68.5" style="enable-background:new 0 0 113.3 68.5;" xml:space="preserve">
<style type="text/css">
	.st0{stroke:#000000;stroke-width:0.63;stroke-miterlimit:10;}
	.st1{stroke:#000000;stroke-width:0.78;stroke-miterlimit:10;}
	.st2{stroke:#000000;stroke-width:0.89;stroke-miterlimit:10;}
	.st3{stroke:#000000;stroke-width:0.41;stroke-miterlimit:10;}
</style>
<g id="Layer_2_1_">
	<g id="Layer_2-2">
		<path class="st0" d="M0.6,6.1h4.6l0.2,0.4H0.9L0.6,6.1z M1.5,7.6H6L6.2,8H1.7L1.5,7.6z M2.3,9.1h4.6l0.2,0.4H2.6L2.3,9.1z
			 M3.2,10.7h4.5L7.9,11H3.5L3.2,10.7z M4.1,12.2h4.5l0.2,0.4H4.4L4.1,12.2z M5.1,13.7h4.2l0.2,0.4H5.3L5.1,13.7z M6,15.2h4.2
			l0.2,0.4H6.2L6,15.2z M6.8,16.8H11l0.2,0.4h-4L6.8,16.8z M7.7,18.3h4l0.3,0.4H8L7.7,18.3z M8.6,19.8h4l0.2,0.4h-4L8.6,19.8z
			 M9.5,21.4h3.9l0.3,0.4h-4L9.5,21.4z M10.3,22.9h4l0.2,0.4h-4L10.3,22.9z M11,24.4h4l0.2,0.4h-3.9L11,24.4z M11.8,25.9h4l0.2,0.4
			h-3.9L11.8,25.9z M12.7,27.5h4l0.2,0.4h-3.9L12.7,27.5z M13.5,29h4l0.2,0.4h-3.9L13.5,29z M14.2,30.5h4.1l0.2,0.4h-4L14.2,30.5z
			 M15.1,32H19l0.3,0.4h-3.9L15.1,32z M15.9,33.6h4l0.3,0.4h-4L15.9,33.6z M16.7,35.1h4.1l0.3,0.4H17L16.7,35.1z M21.7,36.6l0.3,0.4
			h-4.2l-0.3-0.4H21.7z M22.6,38.2l0.3,0.4h-4.3l-0.3-0.4H22.6z M23.3,39.7l0.3,0.2l-0.2,0.2h-4l-0.3-0.5H23.3z M22.9,41.2l-0.3,0.4
			h-2.5l-0.3-0.4H22.9z M22.1,42.7l-0.3,0.4H21l-0.3-0.4H22.1z M21.8,44.1l-0.4,0.4l-0.4-0.4H21.8z M38,6.1h4.5v0.4H38V6.1z M38,7.6
			h4.5V8H38V7.6z M38,9.1h4.5v0.4H38V9.1z M38,10.7h4.5V11H38V10.7z M38,12.2h4.5v0.4H38V12.2z M38,13.7h4.5v0.4H38V13.7z M38,15.2
			h4.5v0.4H38V15.2z M38,16.8h4.5v0.4H38V16.8z M38,18.3h4.5v0.4H38V18.3z M38,19.8h4.5v0.4H38V19.8z M38,21.4h4.5v0.4H38V21.4z
			 M38,22.9h4.5v0.4H38V22.9z M38,24.4h4.5v0.4H38V24.4z M38,25.9h4.5v0.4H38V25.9z M38,27.5h4.5v0.4H38V27.5z M38,29h4.5v0.4H38V29
			z M38,30.5h4.5v0.4H38V30.5z M38,32h4.5v0.4H38V32z M38,33.6h4.5V34H38V33.6z M38,35.1h4.5v0.4H38V35.1z M38,36.6h4.5V37H38V36.6z
			 M38,38.2h4.5v0.4H38V38.2z M38,39.7h4.5v0.4H38V39.7z M38,41.2h4.5v0.4H38V41.2z M38,42.7h4.5v0.4H38V42.7z M38,44.3h4.5v0.4H38
			V44.3z M38,45.8h4.5v0.3H38V45.8z"/>
		<path class="st1" d="M71.8,46.6h6l-0.3,0.5h-6L71.8,46.6z M72.8,44.7h6l-0.3,0.5h-5.9L72.8,44.7z M73.9,42.8h5.9l-0.3,0.5h-5.9
			L73.9,42.8z M74.9,40.9h5.9l-0.3,0.5h-5.8L74.9,40.9z M76,39l5.9,0l-0.3,0.5h-5.9L76,39z M77,37.2l5.9,0l-0.3,0.5h-5.8L77,37.2z
			 M78,35.3h5.9l-0.3,0.5h-5.8L78,35.3z M79.1,33.4l5.9,0l-0.3,0.5h-5.9L79.1,33.4z M80.1,31.5H86l-0.3,0.5h-5.8L80.1,31.5z
			 M81.2,29.6l5.9,0l-0.3,0.5l-5.9,0L81.2,29.6z M82.2,27.7h5.9l-0.3,0.5l-5.8,0L82.2,27.7z M83.3,25.8l5.9,0l-0.3,0.5H83L83.3,25.8
			z M83.1,50.5l17.7,0.1l0.2,0.5L82.8,51L83.1,50.5z M84.3,23.9h5.9l-0.3,0.5l-5.8,0L84.3,23.9z M84.1,48.6l15.8,0.1l0.3,0.5
			l-16.3-0.1L84.1,48.6z M85.4,22l13.8,0.1l0.3,0.5l-14.5-0.1L85.4,22z M86.4,20.1l11.9,0.1l0.2,0.5l-12.3-0.1L86.4,20.1z
			 M87.4,18.2l9.8,0.1l0.3,0.5l-10.3-0.1L87.4,18.2z M88.5,16.3l7.7,0.1l0.2,0.5l-8.3-0.1L88.5,16.3z M89.5,14.4l5.7,0.1l0.3,0.5
			h-6.2L89.5,14.4z M90.6,12.5h3.6l0.2,0.5h-4.1L90.6,12.5z M91.6,10.6h1.5l0.3,0.5h-2.1L91.6,10.6z M92.5,9l0.2,0.4h-0.4L92.5,9z
			 M94.7,24h5.7l0.2,0.5H95L94.7,24z M95.7,25.9l5.7,0l0.3,0.5H96L95.7,25.9z M96.7,27.8l5.8,0l0.2,0.5H97L96.7,27.8z M97.7,29.7
			l5.8,0l0.3,0.5H98L97.7,29.7z M98.7,31.6l5.9,0l0.2,0.5H99L98.7,31.6z M99.7,33.5h5.9l0.3,0.5l-6.1,0L99.7,33.5z M100.7,35.5l6,0
			l0.2,0.5H101L100.7,35.5z M101.7,37.4h6l0.3,0.5l-6,0L101.7,37.4z M108.7,39.4l0.2,0.5h-6l-0.3-0.5H108.7z M109.7,41.3l0.3,0.5
			l-6.2,0l-0.3-0.5L109.7,41.3z M110.8,43.2l0.2,0.5h-6.2l-0.3-0.5H110.8z M111.8,45.1l0.3,0.5l-6.3,0l-0.3-0.5L111.8,45.1z
			 M112.5,47l0.2,0.5h-6.4l-0.3-0.6L112.5,47z"/>
		<path d="M112.8,67.8c0,0.2,0,0.4,0,0.4s-0.2,0.2-0.3,0.2s-0.1,0.1-0.2,0.1h-0.1"/>
		<polyline class="st2" points="48.2,53.7 54.6,53.7 54.4,54.3 47.8,54.3 		"/>
		<polyline class="st2" points="49.4,51.6 55.8,51.6 55.5,52.1 49.1,52.1 		"/>
		<polyline class="st2" points="50.7,49.4 57,49.4 56.8,49.9 50.3,49.9 		"/>
		<polyline class="st2" points="51.5,47.8 51.9,47.2 58.1,47.2 57.9,47.8 51.5,47.8 		"/>
		<polygon class="st2" points="53.2,45.1 59.4,45.1 59.1,45.6 52.8,45.6 		"/>
		<polygon class="st2" points="54.5,42.9 60.5,42.9 60.2,43.4 54.2,43.4 		"/>
		<polygon class="st2" points="55.8,40.7 61.6,40.7 61.4,41.3 55.4,41.3 		"/>
		<polygon class="st2" points="57,38.6 62.7,38.6 62.5,39.1 56.6,39.1 		"/>
		<polygon class="st2" points="58.3,36.4 64,36.4 63.6,36.9 57.9,36.9 		"/>
		<polygon class="st2" points="59.5,34.2 65.1,34.2 64.8,34.8 59.1,34.8 		"/>
		<polygon class="st2" points="60.7,32 66.3,32 66,32.6 60.4,32.6 		"/>
		<polygon class="st2" points="61.9,29.9 67.4,29.9 67.2,30.4 61.5,30.4 		"/>
		<polygon class="st2" points="63,27.7 68.6,27.7 68.3,28.3 62.6,28.3 		"/>
		<polygon class="st2" points="64.1,25.5 69.7,25.5 69.4,26.1 63.7,26.1 		"/>
		<polygon class="st2" points="65.3,23.4 70.9,23.4 70.7,23.9 65,23.9 		"/>
		<polygon class="st2" points="66.4,21.2 72,21.2 71.8,21.7 66.1,21.7 		"/>
		<polygon class="st2" points="67.6,19 73.3,19 73,19.6 67.2,19.6 		"/>
		<polygon class="st2" points="68.8,16.9 74.4,16.9 74,17.4 68.4,17.4 		"/>
		<polygon class="st2" points="69.9,14.7 75.6,14.7 75.3,15.2 69.6,15.2 		"/>
		<polygon class="st2" points="71,12.5 76.9,12.5 76.5,13.1 70.7,13.1 		"/>
		<polygon class="st2" points="71.8,10.9 72.2,10.4 78.1,10.4 77.8,10.9 		"/>
		<polygon class="st2" points="72.9,8.7 73.3,8.2 79.4,8.2 79,8.7 		"/>
		<polygon class="st2" points="74.2,6.6 74.5,5.9 80.2,5.9 80.2,6.2 80.1,6.6 		"/>
		<polygon class="st2" points="75.3,4.4 75.6,3.8 79.1,3.8 79.5,4.4 		"/>
		<polygon class="st2" points="76.4,2.2 76.8,1.7 78,1.7 78.4,2.2 		"/>
		<polygon class="st3" points="77.2,0.6 77.4,0.3 77.6,0.6 		"/>
	</g>
</g>
</svg>
