<svg xmlns="http://www.w3.org/2000/svg" viewBox="0 0 176 71.49"><g id="Layer_2" data-name="Layer 2"><g id="Layer_2-2" data-name="Layer 2"><text transform="translate(35.39 52.18)" style="font-size:60px;fill:#fff;font-family:Turquoise-Regular, Turquoise">M<tspan x="51" y="0" style="letter-spacing:-0.14000651041666667em">/</tspan><tspan x="66.05" y="0" style="letter-spacing:-0.05799153645833333em">A</tspan></text><path d="M170.37,36.33c-2.73,1.32-13.28,5.17-18.09,7-2.64,1-5.28,2.72-5.28,5.13,0,1.09-.17,1-.24,1s-.08-.1-.08-.31c.06-2.2.19-3.5.15-5.59,0-1.75,2.71-2.3,6-3.44,5.84-2,9.93-3.09,11.77-3.78-2.41-.8-6.84-2.12-11.77-3.8-3.33-1.14-6.06-1.69-6-3.44,0-2.1-.15-5-.15-7.17,0-.21,0-.33.08-.32s.24-.07.24,1c0,2.4,2.64,4.1,5.28,5.13,4.81,1.87,15.36,5.72,18.09,7C170.49,34.92,170.56,36.24,170.37,36.33Z" style="fill:#fff"/><path d="M6.8,34.86c2.73-1.31,13.28-5.16,18.09-7,2.64-1,5.28-2.73,5.28-5.13,0-1.1.17-1,.24-1s.08.11.08.32c-.06,2.19-.19,3.49-.15,5.58,0,1.76-2.71,2.31-6,3.44-5.85,2-9.93,3.1-11.77,3.79,2.41.8,6.84,2.12,11.77,3.8,3.33,1.14,6.06,1.68,6,3.44,0,2.09.15,5,.15,7.17,0,.21,0,.32-.08.31s-.24.07-.24-1c0-2.41-2.64-4.11-5.28-5.13-4.81-1.87-15.36-5.73-18.09-7C6.68,36.28,6.61,35,6.8,34.86Z" style="fill:#fff"/><rect x="0.5" y="0.5" width="175" height="68.5" style="fill:none;stroke:#fff;stroke-miterlimit:10"/></g></g></svg>